<svg width="23" height="19" viewBox="0 0 23 19" fill="none" xmlns="http://www.w3.org/2000/svg">
<path d="M12.3052 17.2716C12.0422 17.4751 11.7745 17.6822 11.5023 17.8931C11.238 17.6886 10.978 17.4878 10.7224 17.2904C7.79138 15.0264 5.434 13.2056 3.73664 11.4888C1.80592 9.53594 0.875 7.85817 0.875 5.99612C0.875 3.16856 2.89136 0.875 5.75138 0.875C7.36134 0.875 8.59367 1.63592 9.45399 2.44787C9.88263 2.85242 10.2063 3.2587 10.4219 3.56288C10.5292 3.71431 10.6084 3.8386 10.6593 3.92217C10.6847 3.96391 10.7029 3.99532 10.7139 4.0147L10.725 4.03445L10.7257 4.03582L10.7261 4.03657L10.7262 4.03667L10.7264 4.03712L11.4972 5.48277L12.2681 4.03713L12.2683 4.03667L12.2684 4.03658L12.2688 4.03582L12.269 4.03533L12.2695 4.03447L12.2806 4.01472C12.2916 3.99536 12.3098 3.96396 12.3352 3.92223C12.386 3.83868 12.4653 3.71441 12.5726 3.563C12.7882 3.25886 13.112 2.85262 13.541 2.44809C14.4018 1.63626 15.6355 0.875 17.2486 0.875C20.1086 0.875 22.125 3.16856 22.125 5.99612C22.125 7.85551 21.1943 9.53204 19.2639 11.4852C17.5716 13.1976 15.2233 15.0142 12.3052 17.2716Z" stroke="#2AC6AB" stroke-width="1.75" stroke-miterlimit="10"/>
</svg>
